<?xml version="1.0" standalone="no"?>
<!DOCTYPE svg PUBLIC "-//W3C//DTD SVG 20010904//EN"
 "http://www.w3.org/TR/2001/REC-SVG-20010904/DTD/svg10.dtd">
<svg version="1.0" xmlns="http://www.w3.org/2000/svg"
 width="250.000000pt" height="250.000000pt" viewBox="0 0 250.000000 250.000000"
 preserveAspectRatio="xMidYMid meet">
<metadata>
Created by potrace 1.11, written by Peter Selinger 2001-2013
</metadata>
<g transform="translate(0.000000,250.000000) scale(0.100000,-0.100000)"
fill="#000000" stroke="none">
<path d="M527 1572 c-9 -2 -15 -8 -12 -13 4 -5 2 -9 -4 -9 -6 0 -7 -11 -2 -28
5 -15 4 -37 0 -50 -5 -12 -5 -22 -1 -22 8 0 7 -83 -2 -105 -3 -8 -2 -15 2 -15
4 0 6 -68 6 -150 -2 -142 8 -206 28 -194 5 3 8 -2 8 -11 0 -9 4 -14 9 -11 5 4
11 2 13 -4 2 -6 26 -12 54 -15 28 -2 55 -5 60 -6 16 -2 54 13 54 23 0 5 5 6
12 2 7 -5 8 -3 2 7 -4 8 -7 24 -5 37 1 12 -2 22 -8 22 -6 0 -11 9 -11 19 0 11
-4 23 -10 26 -5 3 -10 1 -10 -6 0 -8 -6 -6 -18 5 -19 16 -23 51 -9 73 4 6 3
14 -1 17 -11 7 -9 46 2 65 5 8 5 12 0 9 -5 -4 -9 24 -9 62 -1 38 2 67 5 65 3
-2 6 5 6 15 0 10 -3 17 -6 15 -11 -7 -6 120 5 127 6 5 5 8 -4 8 -7 0 -11 6 -8
15 4 8 1 18 -6 22 -12 7 -109 11 -140 5z"/>
<path d="M45 1520 c-3 -5 -14 -7 -25 -5 -20 4 -21 -1 -20 -281 l1 -284 32 -1
c145 -4 187 -3 187 6 0 7 3 7 8 0 9 -13 42 -15 42 -3 0 6 8 4 17 -3 14 -12 16
-12 8 0 -6 11 -4 13 8 8 9 -3 19 -1 23 5 4 7 9 6 15 -3 7 -11 9 -10 9 4 0 10
4 16 8 13 5 -3 18 3 30 14 14 14 22 16 25 7 3 -7 6 -2 6 11 1 13 5 21 10 17
11 -6 25 13 26 35 0 8 6 14 14 12 12 -3 12 0 1 12 -9 12 -9 16 -1 16 7 0 9 5
5 12 -4 7 -7 27 -6 45 2 21 -2 33 -10 33 -9 0 -8 3 2 10 11 7 11 10 2 10 -7 0
-10 5 -7 10 3 6 -1 10 -10 10 -9 0 -13 5 -10 10 3 6 -1 10 -9 10 -9 0 -16 7
-16 15 0 9 -6 12 -15 9 -17 -7 -12 15 13 53 19 30 22 55 8 72 -9 12 -8 13 2 7
11 -7 12 -4 3 13 -7 11 -8 21 -4 21 4 0 -7 11 -25 23 -17 13 -29 27 -26 30 3
3 -4 3 -17 0 -15 -4 -20 -3 -15 5 5 8 2 10 -8 6 -9 -3 -16 -1 -16 5 0 9 -5 9
-21 0 -17 -9 -20 -8 -14 2 6 9 3 11 -8 6 -9 -3 -19 -1 -23 5 -4 7 -9 6 -15 -3
-6 -11 -11 -11 -20 -2 -9 9 -17 9 -33 1 -12 -6 -21 -11 -21 -10 0 0 -13 5 -28
11 -18 7 -26 7 -22 1 8 -12 3 -13 -29 0 -15 5 -28 6 -31 0z m129 -122 c-5 -9
-2 -9 9 1 13 10 17 10 17 1 0 -10 3 -10 15 0 10 9 15 9 15 1 0 -6 5 -10 11 -8
6 1 18 -9 27 -23 14 -19 14 -23 2 -16 -12 7 -13 6 -3 -4 10 -11 9 -16 -5 -27
-9 -8 -11 -11 -3 -7 9 5 12 3 7 -5 -4 -6 -11 -9 -16 -6 -5 3 -12 1 -15 -5 -5
-8 -11 -7 -21 1 -11 9 -14 8 -14 -2 0 -11 -2 -11 -10 1 -6 9 -10 11 -10 3 0
-7 -7 -10 -15 -7 -8 4 -15 13 -15 21 0 9 -5 11 -12 7 -10 -6 -10 -5 -1 7 6 8
11 24 9 34 -2 11 4 25 13 32 21 16 24 16 15 1z m-4 -220 c0 8 15 12 43 12 24
0 49 -6 56 -12 11 -11 12 -10 6 0 -6 11 -3 11 13 1 12 -7 19 -16 16 -20 -2 -4
3 -10 12 -13 13 -5 14 -9 4 -21 -10 -12 -10 -15 1 -16 10 0 11 -2 1 -6 -6 -2
-10 -9 -6 -14 3 -5 0 -8 -8 -7 -7 2 -12 -3 -10 -10 2 -10 -2 -10 -17 -3 -14 8
-22 7 -30 -3 -11 -14 -39 -15 -59 -2 -7 4 -12 2 -12 -4 0 -6 -8 -3 -18 7 -13
13 -17 31 -16 68 3 64 3 63 14 45 6 -10 10 -11 10 -2z"/>
<path d="M1729 1520 c-1 -3 -1 -8 0 -12 0 -5 -2 -8 -7 -8 -4 0 -7 -22 -7 -50
0 -27 4 -50 9 -50 5 0 3 -7 -4 -15 -10 -12 -10 -15 0 -15 10 0 10 -3 1 -14 -9
-11 -9 -15 1 -19 10 -4 10 -6 0 -6 -10 -1 -10 -5 2 -17 9 -8 14 -20 10 -25
-10 -16 21 -36 51 -34 17 1 36 -3 44 -9 11 -8 13 -8 7 2 -5 8 0 12 13 12 14 0
19 5 15 15 -4 9 0 15 7 15 11 0 11 3 -1 10 -8 5 -10 10 -4 10 13 0 14 4 17
111 2 51 -1 89 -8 95 -10 9 -144 13 -146 4z"/>
<path d="M2170 1375 c0 -7 -26 -10 -65 -9 -36 1 -68 -2 -71 -7 -3 -5 -10 -7
-15 -4 -5 4 -9 1 -9 -5 0 -6 -4 -8 -10 -5 -5 3 -10 1 -10 -6 0 -7 -3 -9 -6 -6
-11 11 -54 -46 -55 -73 -2 -52 3 -84 17 -97 8 -8 14 -19 14 -24 0 -6 5 -7 10
-4 6 3 13 0 16 -9 3 -8 12 -12 19 -10 7 3 16 0 20 -5 3 -6 11 -9 16 -6 5 4 9
2 9 -4 0 -5 10 -8 22 -6 32 7 66 -5 47 -15 -25 -13 -119 -6 -129 10 -9 13 -10
13 -10 0 0 -12 -2 -12 -9 -1 -6 9 -11 10 -15 2 -4 -6 -4 -11 1 -11 4 0 3 -4
-4 -8 -11 -7 -22 -43 -26 -87 -2 -15 4 -20 21 -19 12 1 22 -3 22 -8 0 -5 5 -6
10 -3 6 3 10 2 10 -4 0 -5 14 -8 30 -6 18 2 30 -1 30 -8 0 -8 3 -8 8 -2 9 13
92 15 92 2 0 -5 7 -4 15 3 8 6 19 9 25 5 5 -3 10 -1 10 5 0 6 4 8 10 5 11 -7
102 80 93 89 -10 10 -11 66 -1 60 5 -4 2 9 -8 27 -10 19 -17 37 -16 41 1 4 -6
4 -15 1 -11 -4 -14 -3 -9 5 5 8 0 12 -13 12 -12 0 -21 4 -21 10 0 5 -7 7 -15
4 -8 -4 -15 -2 -15 4 0 5 -11 8 -25 7 -15 -2 -25 2 -25 10 0 9 16 12 54 10 30
-1 61 2 68 6 9 6 9 9 1 9 -8 0 -7 9 3 29 17 35 26 71 16 69 -4 -1 -16 2 -27 8
-11 6 -31 10 -45 10 -14 -1 -28 4 -32 9 -5 7 -8 6 -8 0z"/>
<path d="M944 1354 c-15 -8 -26 -9 -30 -3 -4 6 -11 6 -19 -1 -8 -7 -20 -8 -27
-4 -7 4 -10 4 -6 -1 11 -12 -29 -38 -45 -29 -6 4 -9 4 -5 -1 10 -11 -11 -47
-23 -40 -5 4 -9 3 -8 -2 4 -22 -2 -34 -13 -27 -10 5 -10 4 -1 -6 9 -10 9 -18
0 -34 -12 -22 -18 -96 -8 -96 4 0 8 -12 9 -27 1 -16 7 -29 12 -31 6 -2 10 -10
10 -18 0 -8 5 -14 10 -14 6 0 10 -7 10 -16 0 -8 5 -12 10 -9 6 3 13 -1 16 -10
4 -9 13 -14 20 -11 8 3 14 0 14 -5 0 -7 11 -9 25 -7 13 3 22 1 19 -3 -3 -5 25
-9 61 -9 50 0 64 3 59 13 -5 7 0 6 11 -3 11 -9 16 -10 11 -2 -5 8 0 12 13 12
12 0 21 5 21 11 0 8 4 8 14 0 11 -9 16 -9 22 0 5 8 3 9 -6 4 -8 -5 -11 -3 -8
6 3 8 12 13 21 13 9 -1 13 4 10 12 -3 9 2 14 12 14 11 0 15 5 11 15 -3 8 5 24
17 36 12 12 16 19 10 15 -19 -11 -16 5 5 21 9 8 12 12 6 9 -7 -3 -11 9 -11 35
0 30 4 39 14 35 8 -3 11 -1 8 4 -3 6 -13 10 -21 10 -8 0 -14 5 -14 11 0 5 5 7
11 4 6 -4 5 2 -2 13 -7 12 -17 18 -23 15 -5 -3 -6 -1 -2 5 8 13 -41 72 -61 72
-7 0 -13 5 -13 10 0 6 -8 10 -17 8 -11 -2 -17 2 -15 11 3 12 0 12 -12 1 -13
-10 -16 -10 -16 1 0 11 -2 11 -10 -1 -5 -8 -10 -10 -10 -5 0 14 -37 13 -66 -1z
m47 -119 c22 8 61 -39 46 -55 -8 -8 -8 -11 -1 -7 7 4 11 -5 12 -23 0 -17 -3
-30 -8 -30 -5 0 -6 -7 -3 -17 4 -10 2 -14 -4 -10 -6 4 -14 0 -17 -9 -3 -9 -12
-14 -19 -11 -6 2 -20 0 -31 -5 -14 -8 -17 -7 -11 3 6 9 3 10 -11 5 -10 -4 -15
-4 -12 0 4 3 -3 15 -15 26 -12 11 -17 17 -10 14 6 -4 14 -2 18 4 3 5 0 10 -7
10 -8 0 -13 13 -14 30 -1 17 3 30 7 30 5 0 8 3 8 8 -5 27 1 34 19 21 9 -7 14
-9 10 -5 -4 5 -3 15 4 23 8 10 13 10 18 3 4 -6 13 -8 21 -5z"/>
<path d="M1386 1361 c-3 -5 -15 -7 -26 -4 -12 3 -20 0 -20 -6 0 -7 -4 -9 -10
-6 -5 3 -10 1 -10 -5 0 -6 -4 -9 -9 -5 -5 3 -12 -4 -16 -15 -3 -11 -12 -19
-18 -17 -7 1 -11 -4 -9 -10 1 -7 -3 -13 -9 -13 -5 0 -7 -4 -4 -10 3 -5 1 -10
-5 -10 -6 0 -8 -4 -5 -10 3 -5 2 -10 -2 -10 -5 0 -10 -12 -11 -26 -1 -14 -5
-31 -9 -37 -12 -19 -12 -36 -1 -44 7 -4 8 -1 3 7 -5 9 -4 11 4 6 6 -4 8 -13 4
-19 -12 -19 -12 -37 -2 -37 6 0 7 -4 4 -10 -3 -5 -1 -10 5 -10 6 0 10 -7 8
-16 -3 -18 53 -84 72 -84 6 0 9 -4 6 -8 -3 -5 5 -8 17 -7 12 1 25 -3 29 -9 5
-8 8 -7 8 2 0 10 5 10 20 2 15 -8 20 -8 20 2 0 10 2 10 8 1 5 -8 11 -8 24 1
10 7 15 15 12 18 -2 3 7 3 21 1 29 -6 29 -6 13 -35 -18 -31 -48 -64 -48 -52 0
5 -5 2 -10 -6 -8 -12 -10 -12 -10 -1 0 11 -5 10 -25 -3 -16 -11 -23 -12 -20
-4 4 9 -9 14 -42 15 -53 3 -75 -13 -65 -49 3 -14 1 -19 -6 -14 -7 4 -12 2 -12
-3 0 -6 5 -11 11 -11 8 0 7 -6 -2 -17 -12 -14 -12 -15 0 -9 8 5 17 3 22 -5 7
-11 9 -11 9 -1 0 10 3 10 15 -1 17 -17 171 -22 181 -6 3 5 10 7 15 4 5 -4 9
-2 9 4 0 5 9 8 19 6 15 -3 18 1 14 12 -5 13 -2 15 15 11 12 -4 20 -2 16 3 -3
5 0 9 6 9 6 0 9 4 5 9 -3 6 2 14 11 19 9 5 16 13 16 18 0 5 3 8 7 7 4 -1 7 8
6 20 -1 12 3 28 9 36 9 12 8 13 -4 6 -13 -8 -13 -7 -1 8 7 9 9 17 4 17 -11 0
-11 30 1 49 5 8 3 17 -5 22 -11 7 -11 9 -1 9 7 0 11 4 7 9 -9 16 -13 71 -4 71
4 0 4 14 -1 30 -7 25 -6 30 8 30 15 0 15 2 2 10 -17 11 -20 39 -6 58 7 9 5 16
-5 23 -9 6 -10 9 -2 9 9 0 10 7 3 25 -6 15 -6 26 0 30 6 4 3 13 -6 22 -12 13
-18 13 -24 4 -5 -9 -10 -9 -14 -3 -3 6 -14 9 -24 7 -9 -2 -21 -4 -25 -4 -5 -1
-5 -7 -1 -13 5 -8 0 -7 -11 2 -10 8 -16 10 -12 3 11 -18 -14 -28 -27 -11 -6 8
-17 13 -23 11 -7 -3 -13 0 -13 6 0 10 -31 7 -52 -5 -7 -4 -8 -3 -4 4 4 7 3 12
-3 12 -5 0 -12 -4 -15 -9z m48 -123 c-5 -9 -2 -9 9 1 11 9 17 10 17 2 0 -6 7
-11 16 -11 8 0 12 -4 9 -10 -3 -5 -1 -10 5 -10 6 0 8 -4 5 -10 -3 -5 0 -10 7
-10 9 0 9 -3 -2 -10 -10 -6 -11 -10 -2 -10 14 0 12 -21 -3 -32 -6 -5 -5 -8 4
-8 11 0 11 -3 1 -15 -7 -8 -9 -15 -5 -15 4 0 2 -6 -5 -14 -6 -8 -18 -12 -26
-9 -8 3 -14 0 -14 -7 0 -10 -3 -10 -15 0 -8 7 -15 10 -15 6 0 -3 -9 3 -20 14
-12 12 -18 26 -14 32 4 7 3 8 -4 4 -7 -4 -12 -2 -12 3 0 6 6 11 13 11 7 0 8 3
2 8 -14 10 -18 39 -6 47 6 3 7 13 4 22 -4 11 -3 14 5 9 7 -4 19 0 28 8 19 19
28 21 18 4z"/>
</g>
</svg>
